<svg width="60" height="60" viewBox="0 0 60 60" fill="none" xmlns="http://www.w3.org/2000/svg">
<rect width="60" height="60" rx="16" fill="white"/>
<path d="M34.6438 36.3562L34.5688 33.7C35.1313 33.5937 35.9188 32.6437 36.2375 32.1375L35.1625 29.725C34.5688 29.6312 33.3375 29.575 32.8813 29.925L30.9563 28.0937C31.275 27.625 31.1625 26.4 31.025 25.8187L28.5563 24.875C28.075 25.2187 27.1688 26.0562 27.0938 26.625L24.4375 26.6937C24.3313 26.1312 23.375 25.3562 22.875 25.0312L20.4625 26.1062C20.3688 26.7 20.3125 27.9312 20.6625 28.3875L18.8375 30.3125C18.3625 29.9937 17.1375 30.1125 16.5563 30.2437L15.6125 32.7062C15.9563 33.2 16.7938 34.0937 17.3563 34.175L17.4313 36.8312C16.875 36.9437 16.0938 37.8875 15.7688 38.3937L16.85 40.8062C17.4375 40.9 18.6688 40.95 19.125 40.6125L21.05 42.4312C20.7313 42.9 20.85 44.1312 20.9813 44.7125L23.4438 45.6562C23.9313 45.3062 24.8375 44.4687 24.9125 43.9062L27.5688 43.8312C27.6813 44.4 28.625 45.175 29.1375 45.4937L31.5438 44.425C31.6438 43.825 31.6875 42.6 31.35 42.1437L33.1688 40.2125C33.6438 40.5375 34.8688 40.4187 35.4563 40.2875L36.3938 37.8187C36.0438 37.3375 35.2125 36.4375 34.6438 36.3562ZM28.8188 36.3375C28.6062 36.895 28.233 37.3769 27.7465 37.7224C27.26 38.0678 26.682 38.2612 26.0855 38.2781C25.4891 38.295 24.9011 38.1347 24.3957 37.8174C23.8904 37.5001 23.4906 37.0401 23.2467 36.4955C23.0028 35.951 22.9259 35.3463 23.0257 34.7581C23.1254 34.1698 23.3974 33.6243 23.8072 33.1906C24.217 32.7569 24.7462 32.4545 25.3278 32.3215C25.9095 32.1886 26.5175 32.2311 27.075 32.4437C27.4456 32.5844 27.7847 32.7969 28.0729 33.0689C28.3612 33.3408 28.593 33.667 28.755 34.0287C28.917 34.3905 29.006 34.7806 29.0169 35.1768C29.0279 35.5729 28.9606 35.9674 28.8188 36.3375ZM44.375 19.1625C44.0813 18.9187 43.3875 18.4875 43.0438 18.6L41.9875 16.8C42.25 16.5562 42.2125 15.7375 42.1438 15.3687L40.3375 14.3437C39.9813 14.475 39.2626 14.8625 39.1875 15.2125L37.1 15.2312C37.0188 14.8812 36.2938 14.5062 35.9375 14.375L34.15 15.4312C34.0875 15.8 34.0625 16.6187 34.325 16.8625L33.3 18.675C32.95 18.5687 32.2625 19.0125 31.975 19.2562L31.9938 21.3312C32.2875 21.575 32.9813 22 33.325 21.8937L34.3813 23.6937C34.1188 23.9375 34.1563 24.7562 34.225 25.125L36.0313 26.15C36.3813 26.0187 37.1 25.6312 37.1813 25.2812L39.2625 25.2625C39.35 25.6125 40.075 25.9875 40.4313 26.1187L42.2188 25.0625C42.2813 24.6875 42.3063 23.875 42.0375 23.6312L43.0688 21.8187C43.4125 21.9187 44.1 21.4812 44.3876 21.2375L44.375 19.1625ZM38.1813 21.8812C37.8583 21.8806 37.5428 21.7843 37.2745 21.6045C37.0062 21.4247 36.7972 21.1694 36.6739 20.8709C36.5506 20.5724 36.5184 20.244 36.5816 19.9273C36.6448 19.6105 36.8004 19.3196 37.0288 19.0912C37.2571 18.8628 37.5481 18.7072 37.8648 18.6441C38.1816 18.5809 38.5099 18.613 38.8084 18.7363C39.1069 18.8596 39.3622 19.0686 39.5421 19.3369C39.7219 19.6052 39.8182 19.9208 39.8188 20.2437C39.8193 20.4589 39.7773 20.6721 39.6952 20.871C39.613 21.0699 39.4924 21.2506 39.3403 21.4027C39.1881 21.5549 39.0074 21.6755 38.8085 21.7576C38.6096 21.8397 38.3965 21.8817 38.1813 21.8812Z" fill="#2E2E2E"/>
</svg>
